<?xml version="1.0" standalone="no"?>
<!DOCTYPE svg PUBLIC "-//W3C//DTD SVG 1.1//EN" "http://www.w3.org/Graphics/SVG/1.1/DTD/svg11.dtd" >
<svg xmlns="http://www.w3.org/2000/svg">
<metadata></metadata>
<defs>
<font id="aaux_prolightregular" horiz-adv-x="1001" >
<font-face units-per-em="2048" ascent="1638" descent="-410" />
<missing-glyph horiz-adv-x="552" />
<glyph horiz-adv-x="0" />
<glyph unicode="&#xd;" horiz-adv-x="552" />
<glyph unicode=" "  horiz-adv-x="552" />
<glyph unicode="&#x09;" horiz-adv-x="552" />
<glyph unicode="&#xa0;" horiz-adv-x="552" />
<glyph unicode="!" horiz-adv-x="573" d="M205 63q0 35 23.5 58.5t58.5 23.5q33 0 57.5 -23.5t24.5 -58.5q0 -33 -25 -56t-57 -23q-35 0 -58.5 23.5t-23.5 55.5zM231 735v695h111v-695l-20 -383h-68z" />
<glyph unicode="&#x22;" horiz-adv-x="696" d="M143 1120v310q0 29 20.5 48t47.5 19q29 0 48.5 -19.5t19.5 -47.5v-310h-136zM418 1120v310q0 29 19.5 48t47.5 19q27 0 47.5 -19.5t20.5 -47.5v-310h-135z" />
<glyph unicode="#" horiz-adv-x="1417" d="M113 436l20 101h258l76 356h-256l20 102h256l95 435h100l-92 -435h356l92 435h101l-92 -435h258l-23 -102h-256l-76 -356h256l-20 -101h-258l-92 -436h-101l92 436h-356l-94 -436h-101l93 436h-256zM492 537h358l76 356h-359z" />
<glyph unicode="$" horiz-adv-x="1036" d="M92 442l103 25q63 -219 284 -240v473q-352 70 -352 310q0 137 111 223q98 80 241 86v111h103v-111q104 -6 190 -67.5t131 -155.5l-90 -41q-88 154 -231 162v-433q358 -90 358 -319q0 -147 -109 -240q-96 -84 -249 -100v-125h-103v127q-158 14 -250 89t-137 226zM233 1010 q0 -148 246 -205v412q-104 0 -172 -52q-74 -55 -74 -155zM582 225q256 43 256 240q0 135 -256 215v-455z" />
<glyph unicode="%" horiz-adv-x="1613" d="M123 1047q0 168 61 272q76 131 234 131t233 -131q62 -104 62 -272t-62 -273q-76 -131 -233 -131q-158 0 -234 131q-61 104 -61 273zM215 1047q0 -311 203 -312q203 1 203 312t-203 311t-203 -311zM442 0l621 1430h106l-618 -1430h-109zM901 381q0 168 62 274 q76 129 233 129q158 0 234 -129q61 -106 61 -274t-61 -272q-76 -129 -234 -129t-233 129q-61 104 -62 272zM993 381q0 -309 203 -309t203 309q0 311 -203 311t-203 -311z" />
<glyph unicode="&#x26;" horiz-adv-x="1329" d="M100 367q0 156 76 264q66 92 213 178q-135 199 -135 346q0 127 79 208t204 81q123 0 195.5 -77t72.5 -200q0 -127 -84 -225q-57 -68 -193 -156q203 -279 430 -493q88 147 89 356h104q0 -252 -115 -428q82 -74 158 -131l-51 -90q-102 78 -170 137q-154 -158 -426 -157 q-188 0 -311 98q-135 106 -136 289zM205 367q0 -135 106 -215q96 -74 236 -74q215 0 348 135q-238 225 -451 516q-127 -80 -176 -145q-63 -86 -63 -217zM356 1155q0 -131 119 -293q109 70 156 123q71 82 71 182q0 174 -165 174q-82 0 -131.5 -51t-49.5 -135z" />
<glyph unicode="'" horiz-adv-x="421" d="M143 1120v310q0 29 20.5 48t47.5 19q29 0 48.5 -19.5t19.5 -47.5v-310h-136z" />
<glyph unicode="(" horiz-adv-x="647" d="M123 715q0 195 79 389t214 326h129q-143 -113 -234 -322q-86 -201 -86 -393q0 -193 86 -391q91 -211 234 -324h-129q-135 133 -215 330q-78 190 -78 385z" />
<glyph unicode=")" horiz-adv-x="647" d="M123 0q143 113 233 324q86 199 86 391q0 193 -86 393q-90 209 -233 322h129q135 -131 214 -325.5t79 -389.5t-78 -385q-78 -197 -215 -330h-129z" />
<glyph unicode="*" horiz-adv-x="866" d="M92 1145l33 98l264 -94l-8 281h104l-8 -281l264 94l33 -98l-270 -80l172 -223l-84 -60l-160 232l-158 -232l-84 60l172 223z" />
<glyph unicode="+" horiz-adv-x="1005" d="M92 508v104h359v359h104v-359h358v-104h-358v-358h-104v358h-359z" />
<glyph unicode="," horiz-adv-x="430" d="M133 66q0 33 23.5 56t58.5 23q33 0 57.5 -23.5t24.5 -55.5v-91l-156 -251h-8v342z" />
<glyph unicode="-" horiz-adv-x="792" d="M133 508v104h526v-104h-526z" />
<glyph unicode="." horiz-adv-x="444" d="M133 72q0 37 25.5 62.5t62.5 25.5t63.5 -25.5t26.5 -62.5t-26.5 -62.5t-63.5 -25.5t-62.5 25.5t-25.5 62.5z" />
<glyph unicode="/" horiz-adv-x="825" d="M41 -156l633 1741h110l-632 -1741h-111z" />
<glyph unicode="0" horiz-adv-x="1140" d="M102 715q0 293 91 477q119 248 378 248q258 0 379 -248q88 -184 88 -477q0 -291 -88 -479q-121 -250 -379 -250q-260 0 -378 250q-90 188 -91 479zM203 715q0 -250 63 -408q92 -225 305 -225q211 0 303 225q64 158 64 408t-64 405q-92 223 -303 223q-213 0 -305 -223 q-63 -156 -63 -405z" />
<glyph unicode="1" horiz-adv-x="722" d="M82 1214l313 216h62v-1430h-103v1290l-219 -147z" />
<glyph unicode="2" horiz-adv-x="1124" d="M123 0v100q127 334 377 535q121 88 241 174q119 106 119 262q0 129 -96 207q-90 70 -225 70q-227 0 -310 -193l-88 41q51 119 158 184.5t240 65.5q182 0 299 -96q125 -102 125 -281q0 -135 -60 -231q-47 -72 -149 -148q-96 -68 -191 -135q-106 -82 -196 -205 q-96 -131 -134 -250h768v-100h-878z" />
<glyph unicode="3" horiz-adv-x="1042" d="M102 264l97 31q33 -102 116.5 -156.5t194.5 -54.5q139 0 232.5 87t93.5 224q0 154 -101 236q-94 74 -250 71v89q143 -2 228 63q92 72 92 213q0 119 -92 202t-213 83q-100 0 -178 -54q-84 -53 -115 -145l-94 35q49 121 153.5 189.5t237.5 68.5q170 0 284.5 -105.5 t114.5 -273.5q0 -236 -190 -317q227 -85 227 -355q0 -186 -122 -297.5t-308 -111.5q-317 0 -408 278z" />
<glyph unicode="4" horiz-adv-x="1110" d="M92 375v100l602 955h115l-598 -955h557v608l100 -20v-588h140v-100h-140v-375h-100v375h-676z" />
<glyph unicode="5" horiz-adv-x="1081" d="M123 258l96 31q31 -98 117 -154q80 -51 188 -51q170 0 264 113q88 104 89 278q0 170 -86 275q-92 113 -261 112q-160 0 -272 -108h-94v676h721v-97h-627v-473q117 98 270 98q215 0 336 -137q115 -129 115 -346t-119 -350q-125 -139 -338 -139q-141 0 -246 69 q-113 74 -153 203z" />
<glyph unicode="6" horiz-adv-x="1097" d="M102 483q0 582 504 947l156 2q-465 -305 -543 -732q143 186 338 187q199 0 322 -137q116 -131 116 -324q0 -186 -127 -312t-313 -126q-207 0 -334 145q-119 139 -119 350zM205 434q0 -141 105.5 -245.5t246.5 -104.5q143 0 241.5 98.5t98.5 243.5q0 147 -90 252 q-96 111 -250 110q-143 0 -247.5 -106.5t-104.5 -247.5z" />
<glyph unicode="7" horiz-adv-x="1005" d="M82 1210v220h842v-101q-492 -530 -471 -1329h-115q-2 449 145 809q104 252 318 520h-619v-119h-100z" />
<glyph unicode="8" horiz-adv-x="1085" d="M102 395q0 270 228 355q-188 82 -189 317q0 168 117 274q115 100 285 101q170 0 282 -101q119 -106 119 -274q0 -100 -45 -184q-49 -92 -143 -133q227 -85 227 -355q0 -184 -127 -296.5t-313 -112.5q-188 0 -312 110q-129 115 -129 299zM205 395q0 -139 98 -225t240 -86 q139 0 237.5 86t98.5 225q0 147 -93.5 225t-242.5 78q-152 0 -242 -73q-96 -82 -96 -230zM244 1067q0 -131 86 -205q80 -68 213 -67q133 0 216 69.5t83 202.5q0 121 -89 200t-210 79q-123 0 -211 -79t-88 -200z" />
<glyph unicode="9" horiz-adv-x="1062" d="M92 1006q0 180 125 309t305 129q203 0 324 -148q115 -137 115 -346q0 -582 -512 -950h-144q459 313 537 731q-125 -162 -322 -162q-184 0 -306 126t-122 311zM190 1006q0 -137 96.5 -238.5t233.5 -101.5q141 0 238.5 98.5t97.5 241.5q0 139 -98.5 240.5t-237.5 101.5 q-137 0 -233.5 -102.5t-96.5 -239.5z" />
<glyph unicode=":" horiz-adv-x="444" d="M133 72q0 37 26.5 62.5t61.5 25.5q37 0 63.5 -25.5t26.5 -62.5t-26.5 -62.5t-63.5 -25.5q-35 0 -61.5 25.5t-26.5 62.5zM133 692q0 37 26.5 63.5t61.5 26.5q37 0 63.5 -26.5t26.5 -63.5t-26.5 -62.5t-63.5 -25.5q-35 0 -61.5 25.5t-26.5 62.5z" />
<glyph unicode=";" horiz-adv-x="464" d="M143 692q0 37 26 63.5t62 26.5q37 0 64 -26.5t27 -63.5t-27 -62.5t-64 -25.5t-62.5 25.5t-25.5 62.5zM150 66q0 33 24.5 56t56.5 23q35 0 58.5 -23.5t23.5 -55.5v-91l-153 -251h-10v342z" />
<glyph unicode="&#x3c;" horiz-adv-x="915" d="M102 715l584 715h127l-584 -715l584 -715h-127z" />
<glyph unicode="=" horiz-adv-x="1046" d="M113 258v102h821v-102h-821zM113 666v100h821v-100h-821z" />
<glyph unicode="&#x3e;" horiz-adv-x="915" d="M102 0l584 715l-584 715h127l584 -715l-584 -715h-127z" />
<glyph unicode="?" horiz-adv-x="958" d="M63 1079q0 164 125 269q117 98 285 98q170 0 287 -103.5t117 -271.5q0 -141 -91 -219q-86 -57 -172 -113q-94 -76 -100 -213l-8 -170h-68q-14 117 -14 170q0 166 90 256q84 57 168 115q90 66 90 174q0 127 -85 199.5t-214 72.5q-125 0 -215 -69q-96 -74 -96 -195h-99z M393 63q0 33 24.5 57.5t57.5 24.5q31 0 55.5 -24.5t24.5 -57.5q0 -31 -24.5 -55t-55.5 -24q-33 0 -57.5 24.5t-24.5 54.5z" />
<glyph unicode="@" horiz-adv-x="1433" d="M123 477q0 322 203 623q225 334 532 334q215 0 338 -191q104 -162 104 -391q0 -55 -18 -147q-20 -102 -22 -146l-35 -563l-103 6l13 229q-154 -256 -369 -256q-143 0 -223 123q-70 106 -70 256q0 213 131 416q145 225 348 225q164 0 246 -161q2 193 -72 327 q-92 170 -272 170q-260 0 -455 -305q-172 -272 -172 -547q0 -125 54 -248q59 -131 147 -186l-55 -88q-121 78 -189 227q-61 137 -61 293zM578 356q0 -106 40 -182q49 -96 146 -96q158 0 274 196q103 172 103 340q0 104 -41 183q-51 94 -148 94q-156 0 -272 -195 q-102 -172 -102 -340z" />
<glyph unicode="A" horiz-adv-x="1263" d="M20 0l547 1430h129l547 -1430h-110l-168 436h-666l-168 -436h-111zM336 535h592l-297 776z" />
<glyph unicode="B" horiz-adv-x="1241" d="M154 0v1430h479q461 0 461 -375q0 -100 -45 -187q-49 -92 -136 -129q111 -33 177 -133q59 -96 59 -215q0 -391 -479 -391h-516zM258 102h412q377 0 377 289q0 293 -377 293h-412v-582zM258 776h389q344 0 344 279q0 274 -358 274h-375v-553z" />
<glyph unicode="C" horiz-adv-x="1173" d="M92 715q0 313 121 504q143 229 438 229q139 0 244 -57q92 -51 186 -168l-77 -66q-82 98 -154 139q-82 47 -199 47q-455 0 -454 -628q0 -629 454 -629q117 0 199 47q72 43 154 139l77 -65q-94 -117 -186 -168q-104 -57 -244 -57q-295 0 -440 229q-119 190 -119 504z" />
<glyph unicode="D" horiz-adv-x="1277" d="M154 0v1430h415q256 0 379 -66q156 -86 191 -317q16 -111 16 -332t-16 -330q-35 -231 -191 -317q-123 -68 -377 -68h-417zM258 104h311q236 0 342 66q96 61 123 203q17 86 17 342t-17 342q-27 143 -123 203q-104 67 -335 67h-7h-311v-1223z" />
<glyph unicode="E" horiz-adv-x="1144" d="M154 0v1430h888v-103h-784v-536h686v-99h-686v-590h784v-102h-888z" />
<glyph unicode="F" horiz-adv-x="1103" d="M154 0v1430h868v-103h-764v-536h686v-97h-686v-694h-104z" />
<glyph unicode="G" horiz-adv-x="1265" d="M92 715q0 305 127 502q150 231 438 231q139 0 244 -57q92 -51 186 -168l-77 -66q-82 98 -154 139q-84 47 -199 47q-250 0 -366 -198q-94 -162 -94 -430q0 -264 92 -426q115 -203 358 -203q209 0 305 184q76 141 76 371h-369v104h474l-3 -745h-102v215 q-102 -233 -381 -233q-291 0 -434 231q-121 193 -121 502z" />
<glyph unicode="H" horiz-adv-x="1318" d="M154 0v1430h104v-639h803v639h104v-1430h-104v692h-803v-692h-104z" />
<glyph unicode="I" horiz-adv-x="452" d="M174 0v1430h105v-1430h-105z" />
<glyph unicode="J" horiz-adv-x="1067" d="M61 281l101 26q57 -217 319 -217q178 0 259 82t81 258v1000h103v-1000q0 -444 -443 -444q-156 0 -264 71q-117 78 -156 224z" />
<glyph unicode="K" horiz-adv-x="1124" d="M154 0v1430h104v-713l637 713h135l-635 -711l688 -719h-147l-678 715v-715h-104z" />
<glyph unicode="L" horiz-adv-x="1009" d="M154 0v1430h104v-1334h700v-96h-804z" />
<glyph unicode="M" horiz-adv-x="1470" d="M154 0v1430h104l477 -1287l477 1287h105v-1430h-105v1151l-426 -1151h-104l-424 1147v-1147h-104z" />
<glyph unicode="N" horiz-adv-x="1269" d="M154 0v1430h110l750 -1244v1244h102v-1430h-110l-748 1243v-1243h-104z" />
<glyph unicode="O" horiz-adv-x="1302" d="M92 715q0 313 119 502q143 231 440 231t441 -231q118 -189 118 -502t-118 -502q-143 -231 -441 -231q-297 0 -440 231q-119 188 -119 502zM197 715q0 -629 454 -629q457 0 457 629q0 628 -456 628h-1q-455 0 -454 -628z" />
<glyph unicode="P" horiz-adv-x="1206" d="M154 0v1430h516q465 -1 465 -392t-465 -391h-412v-647h-104zM258 748h412h2q360 0 360 290q0 164 -106 232q-84 55 -256 55h-412v-577z" />
<glyph unicode="Q" horiz-adv-x="1292" d="M92 715q0 313 119 502q143 231 440 231t441 -231q118 -189 118 -502q0 -360 -147 -543l141 -172h-135l-80 98q-140 -116 -335 -116h-3q-297 0 -440 231q-119 188 -119 502zM197 715q0 -629 454 -629q160 0 271 92q-115 131 -271 146v98q207 -16 342 -170q115 154 115 463 q0 628 -456 628h-1q-455 0 -454 -628z" />
<glyph unicode="R" horiz-adv-x="1214" d="M154 0v1430h479q205 0 319 -89q127 -98 127 -297q0 -176 -100 -273t-279 -109q63 -63 97 -117l315 -545h-121l-299 516q-84 143 -186 143h-248v-659h-104zM258 760h375h2q342 0 342 284q0 281 -344 281h-375v-565z" />
<glyph unicode="S" horiz-adv-x="1218" d="M92 358l103 17q51 -293 440 -293q156 0 264 76q123 86 123 237q0 186 -227 269l-422 118q-227 92 -228 305q0 176 142 273q121 84 303 84q354 0 487 -285l-94 -45q-104 225 -393 225q-137 0 -230 -53q-111 -68 -110 -199q0 -160 227 -233q211 -61 422 -123 q227 -103 227 -336q0 -195 -153 -309q-137 -104 -338 -104q-477 0 -543 376z" />
<glyph unicode="T" horiz-adv-x="1093" d="M41 1327v103h1012v-103h-455v-1327h-102v1327h-455z" />
<glyph unicode="U" horiz-adv-x="1298" d="M143 616v814h105v-814q0 -246 76 -370q96 -160 325 -160t326 160q76 127 76 370v814h104v-814q0 -634 -504 -634h-2q-506 0 -506 634z" />
<glyph unicode="V" horiz-adv-x="1130" d="M31 1430h108l426 -1260l426 1260h109l-479 -1430h-111z" />
<glyph unicode="W" horiz-adv-x="1566" d="M61 1430h107l281 -1203l280 1203h107l280 -1203l283 1203h106l-336 -1430h-104l-283 1202l-280 -1202h-107z" />
<glyph unicode="X" horiz-adv-x="1161" d="M51 0l469 737l-440 693h123l379 -596l376 596h123l-438 -693l467 -737h-123l-405 641l-408 -641h-123z" />
<glyph unicode="Y" horiz-adv-x="1136" d="M51 1430h115l403 -826l402 826h114l-464 -959v-471h-105v475z" />
<glyph unicode="Z" horiz-adv-x="1169" d="M92 0v96l840 1231h-766v103h891v-103l-834 -1223h834v-104h-965z" />
<glyph unicode="[" horiz-adv-x="550" d="M143 -125v1679h306v-84h-201v-1511h201v-84h-306z" />
<glyph unicode="\" horiz-adv-x="825" d="M41 1585h111l632 -1741h-110z" />
<glyph unicode="]" horiz-adv-x="550" d="M143 -41h203v1511h-203v84h306v-1679h-306v84z" />
<glyph unicode="^" horiz-adv-x="1050" d="M113 825l354 605h117l354 -605l-86 -51l-326 557l-327 -557z" />
<glyph unicode="_" horiz-adv-x="1083" d="M51 0h981v-100h-981v100z" />
<glyph unicode="`" horiz-adv-x="618" d="M154 1415h137l174 -299h-117z" />
<glyph unicode="a" horiz-adv-x="954" d="M92 276q0 135 101 216q91 71 225 71h4h143q119 0 164 49v95q0 82 -76 137q-70 49 -153 49q-217 0 -267 -162l-94 29q84 231 365 231q125 0 221 -76q102 -82 102 -202v-609l35 -94l-90 -26l-39 98q-131 -102 -295 -102q-150 0 -243 73q-102 80 -103 223zM193 276 q0 -96 75 -151q68 -47 170 -47q166 0 291 129v293q-57 -31 -139 -31h-168q-96 0 -160 -47q-70 -51 -69 -146z" />
<glyph unicode="b" horiz-adv-x="999" d="M143 0v1430h99v-558q94 119 276 119q389 0 389 -506q0 -503 -387 -503h-2q-197 0 -276 114v-96h-99zM242 332q0 -113 80.5 -182.5t195.5 -69.5q170 0 240 127q51 94 51 278q0 186 -51 281q-70 127 -240 127q-117 0 -196.5 -69.5t-79.5 -184.5v-307z" />
<glyph unicode="c" horiz-adv-x="946" d="M92 489q0 221 105 359q116 149 328 149h3q106 0 178 -34.5t148 -116.5l-72 -66q-111 125 -254 125q-176 0 -260 -127q-71 -105 -71 -284q0 -187 71 -293q84 -125 260 -125q143 0 254 125l72 -66q-76 -84 -147.5 -117.5t-178.5 -33.5q-215 0 -331 149q-104 135 -105 356z " />
<glyph unicode="d" horiz-adv-x="1007" d="M92 485q0 506 397 506q164 0 271 -108v547h98v-1334l27 -82l-94 -28l-31 104q-103 -108 -272 -108h-3q-393 0 -393 503zM193 485q0 -405 291 -405h1q117 0 196 68.5t79 183.5v307q0 115 -78 184.5t-193 69.5q-172 0 -243 -125q-53 -96 -53 -283z" />
<glyph unicode="e" horiz-adv-x="976" d="M92 485q0 506 418 506q190 0 289 -133q86 -116 86 -313v-82h-690q6 -383 335 -383q168 0 252 108l78 -61q-113 -145 -330 -145q-438 0 -438 503zM197 561h587q-6 332 -274 332q-293 0 -313 -332z" />
<glyph unicode="f" horiz-adv-x="585" d="M102 881v98h103v43q0 182 55 268q90 140 285 140v-99q-141 0 -201 -92q-45 -70 -45 -217v-43h213v-98h-213v-881h-94v881h-103z" />
<glyph unicode="g" horiz-adv-x="999" d="M92 -119q0 41 14 86l95 -30q-10 -31 -11 -56q0 -86 109 -135q84 -39 182 -39q123 0 228 68q120 77 120 194q0 61 -49 97q-40 30 -98 30h-4q-57 0 -168 -25.5t-170 -25.5q-166 0 -166 135q0 109 119 199q-152 78 -152 291q0 327 342 327h2q168 0 250 -75q80 23 80 104h98 q0 -141 -120 -182q36 -74 36 -169v-5q0 -326 -344 -326q-57 0 -114 8q-104 -63 -105 -159q0 -57 70 -58q57 0 171 29t171 29q104 0 177 -60t73 -160q0 -160 -150 -264q-133 -94 -297 -94q-145 0 -256 59q-133 74 -133 207zM240 670q0 -238 245 -238q246 0 246 238 q0 233 -246 233t-245 -233z" />
<glyph unicode="h" horiz-adv-x="1030" d="M143 0v1430h99v-560q98 121 276 121q389 0 389 -442v-549h-98v549q0 168 -59 250q-72 94 -232 94q-104 0 -186 -62q-90 -68 -90 -167v-664h-99z" />
<glyph unicode="i" horiz-adv-x="413" d="M133 1356q0 31 21.5 52.5t52.5 21.5t52.5 -21.5t21.5 -52.5t-21.5 -52.5t-52.5 -21.5t-52.5 21.5t-21.5 52.5zM158 0v979h98v-979h-98z" />
<glyph unicode="j" horiz-adv-x="471" d="M-41 -352q246 0 246 309v1022h98v-1022q0 -408 -344 -408v99zM180 1356q0 31 21.5 52.5t52.5 21.5t52.5 -21.5t21.5 -52.5t-21.5 -52.5t-52.5 -21.5t-52.5 21.5t-21.5 52.5z" />
<glyph unicode="k" horiz-adv-x="899" d="M143 0v1430h99v-900l417 449h129l-417 -449l508 -530h-138l-499 524v-524h-99z" />
<glyph unicode="l" horiz-adv-x="411" d="M143 229v1201h99v-1201q0 -131 98 -131v-98q-197 0 -197 229z" />
<glyph unicode="m" horiz-adv-x="1576" d="M143 0v979h99v-105q88 117 250 117q217 0 309 -178q94 178 295 178q358 0 358 -442v-549h-98v549q0 344 -260 344q-252 0 -252 -344v-549h-99v549q0 344 -260 344q-92 0 -167.5 -61.5t-75.5 -151.5v-680h-99z" />
<glyph unicode="n" horiz-adv-x="1030" d="M143 0v979h99v-107q100 119 276 119q389 0 389 -442v-549h-98v549q0 168 -59 250q-72 94 -232 94q-119 0 -197.5 -69.5t-78.5 -172.5v-651h-99z" />
<glyph unicode="o" d="M92 485q0 506 410 506q407 0 407 -506q0 -503 -405 -503h-2q-410 0 -410 503zM193 485q0 -188 57 -284q74 -121 250 -121q178 0 252 121q59 96 59 284q0 190 -59 287q-74 121 -250 121q-178 0 -252 -121q-57 -96 -57 -287z" />
<glyph unicode="p" horiz-adv-x="999" d="M143 -451v1430h99v-105q98 125 276 125h2q387 0 387 -505q0 -506 -389 -506q-182 0 -276 114v-553h-99zM242 340q0 -113 80.5 -182.5t195.5 -69.5q170 0 240 125q51 97 51 281t-51 280q-70 127 -240 127q-115 0 -195.5 -69.5t-80.5 -184.5v-307z" />
<glyph unicode="q" horiz-adv-x="1005" d="M92 494q0 505 389 505h2q164 0 275 -112l30 108l95 -30l-27 -82v-1334h-98v551q-101 -112 -272 -112h-3q-391 0 -391 506zM190 494q0 -406 293 -406q115 0 195 69.5t80 182.5v307q0 113 -80 183.5t-195 70.5q-293 0 -293 -407z" />
<glyph unicode="r" horiz-adv-x="765" d="M143 0v979h99v-115q94 127 276 127q103 0 187 -37l-50 -92q-74 31 -137 31q-109 0 -192.5 -70.5t-83.5 -171.5v-651h-99z" />
<glyph unicode="s" horiz-adv-x="915" d="M82 258l96 16q37 -194 294 -194h3q102 0 174 45q86 53 86 149q0 119 -160 170q-150 41 -296 82q-160 66 -160 215q0 127 104 195q88 57 221 57q256 0 353 -196l-88 -43q-70 141 -265 141q-227 0 -227 -154q0 -98 160 -145q150 -41 297 -84q160 -74 160 -238 q0 -137 -115 -219q-99 -73 -240 -73h-4q-152 0 -252 63q-117 72 -141 213z" />
<glyph unicode="t" horiz-adv-x="555" d="M61 901v78h142v303h98v-303h162v-78h-162v-672q0 -84 31 -108q25 -23 104 -23v-98h-37q-197 0 -196 229v672h-142z" />
<glyph unicode="u" horiz-adv-x="1019" d="M123 430v549h98v-549q0 -170 60 -252q70 -94 233 -94q96 0 180 61q94 68 94 162v672h99v-979h-99v96q-105 -108 -271 -108h-3q-391 0 -391 442z" />
<glyph unicode="v" horiz-adv-x="917" d="M41 979h104l314 -838l313 838h105l-367 -979h-104z" />
<glyph unicode="w" horiz-adv-x="1497" d="M41 979h102l258 -823l293 823h103l295 -823l260 823h104l-309 -979h-105l-297 829l-294 -829h-105z" />
<glyph unicode="x" horiz-adv-x="892" d="M41 0l346 506l-330 473h123l266 -387l265 387h120l-325 -473l346 -506h-121l-285 418l-286 -418h-119z" />
<glyph unicode="y" horiz-adv-x="917" d="M41 979h104l314 -838l311 838h107l-459 -1229q-75 -201 -262 -201h-4h-39v99h41q121 0 172 137l80 215z" />
<glyph unicode="z" horiz-adv-x="913" d="M82 0v106l614 775h-565v98h690v-100l-620 -781h620v-98h-739z" />
<glyph unicode="{" horiz-adv-x="684" d="M102 676v80q193 -2 193 221q0 37 -15.5 111.5t-15.5 111.5q0 178 68 262q74 92 250 92v-84q-131 0 -181 -84q-39 -61 -39 -202q0 -35 16.5 -102.5t16.5 -102.5q0 -221 -162 -264q84 -18 127 -101q35 -70 35 -161q0 -37 -16.5 -107t-16.5 -106q0 -281 220 -281v-84 q-317 0 -318 342q0 41 15.5 119t15.5 119q0 221 -193 221z" />
<glyph unicode="|" horiz-adv-x="493" d="M195 -156v1741h104v-1741h-104z" />
<glyph unicode="}" horiz-adv-x="684" d="M102 -41q219 0 220 281q0 37 -17.5 106.5t-17.5 106.5q0 92 37 161q43 82 125 101q-160 43 -160 264q0 35 15 102.5t15 102.5q0 141 -36 202q-49 84 -181 84v84q174 0 250 -92q66 -84 66 -262q0 -37 -14.5 -111.5t-14.5 -111.5q0 -223 193 -221v-80q-193 0 -193 -221 q0 -41 15.5 -119t15.5 -119q0 -342 -318 -342v84z" />
<glyph unicode="~" horiz-adv-x="952" d="M102 602q96 115 207 115q70 0 172.5 -65.5t161.5 -65.5q72 0 139 82l68 -64q-109 -115 -211 -115q-68 0 -170 66t-164 66q-78 0 -133 -80z" />
<glyph unicode="&#xa1;" horiz-adv-x="573" d="M205 1366q0 33 23.5 57.5t58.5 24.5q33 0 57.5 -24.5t24.5 -57.5q0 -35 -25 -58.5t-57 -23.5q-35 0 -58.5 23.5t-23.5 58.5zM231 0v694l21 383h67l23 -383v-694h-111z" />
<glyph unicode="&#xa2;" horiz-adv-x="946" d="M92 489q0 221 105 357q117 152 329 151l33 158l78 -16l-31 -146q131 -18 248 -147l-72 -66q-94 106 -196 121l-172 -809q53 -16 114 -16q143 0 254 125l72 -66q-74 -82 -146.5 -116.5t-179.5 -34.5q-72 0 -133 16l-39 -176l-75 16l38 191q-227 119 -227 458zM197 489 q0 -260 145 -360l164 776q-309 -18 -309 -416z" />
<glyph unicode="&#xa3;" horiz-adv-x="1028" d="M92 668l21 98h108q-33 168 -33 256q0 180 95 293q100 121 278 121q123 0 208 -41t167 -135l-76 -66q-68 78 -133 109.5t-166 31.5q-135 0 -207 -92q-66 -82 -65 -221q0 -82 37 -256h260l-21 -98h-221q29 -143 29 -238q0 -154 -68 -330h613v-100h-730v84q84 190 84 346 q0 88 -30 238h-150z" />
<glyph unicode="&#xa4;" horiz-adv-x="1198" d="M92 487l21 99h116q-4 84 -2 180h-135l21 98h118q18 207 107 344q156 240 448 240q203 0 344 -133l-53 -92q-121 121 -291 120q-203 0 -323 -141q-109 -127 -127 -338h524l-22 -98h-508v-51q0 -70 4 -129h526l-22 -99h-492q31 -180 143 -286q119 -115 297 -115 q170 0 291 121l53 -92q-141 -133 -344 -133q-223 0 -370 145q-139 137 -174 360h-150z" />
<glyph unicode="&#xa5;" horiz-adv-x="1177" d="M72 1430h114l404 -826l401 826h115l-322 -664h189l-21 -98h-217l-86 -181h324l-21 -98h-311v-389h-104v389h-332l20 98h305l-86 181h-239l20 98h170z" />
<glyph unicode="&#xa6;" horiz-adv-x="636" d="M256 -156v781h104v-781h-104zM256 807v780h104v-780h-104z" />
<glyph unicode="&#xa7;" horiz-adv-x="1028" d="M133 557q0 188 121 291q-78 78 -78 211q0 156 94.5 258t249.5 102q209 0 359 -276l-88 -49q-121 225 -271 225q-113 0 -178.5 -72.5t-65.5 -187.5q0 -109 74 -162q47 -33 176 -66q369 -93 369 -376q0 -188 -121 -293q80 -78 80 -209q0 -158 -95 -260.5t-249 -102.5 q-211 0 -360 279l88 47q123 -223 272 -223q111 0 177.5 72.5t66.5 187.5q0 106 -76 160q-47 35 -176 67q-369 94 -369 377zM233 557q0 -207 293 -278q102 -27 160 -56q109 70 109 232q0 205 -293 278q-102 27 -160 55q-109 -72 -109 -231z" />
<glyph unicode="&#xa8;" d="M211 1198q0 37 25.5 63.5t62.5 26.5t63.5 -26.5t26.5 -63.5t-26.5 -62.5t-63.5 -25.5t-62.5 25.5t-25.5 62.5zM614 1198q0 37 27 63.5t64 26.5q35 0 61.5 -26.5t26.5 -63.5t-27 -62.5t-61 -25.5q-37 0 -64 25.5t-27 62.5z" />
<glyph unicode="&#xa9;" horiz-adv-x="1617" d="M92 713q0 297 210 507t507 210t507 -210t210 -507t-210 -507t-507 -210t-507 210t-210 507zM180 713q0 -260 185.5 -444.5t443.5 -184.5q260 0 444.5 184.5t184.5 444.5t-184.5 444t-444.5 184q-258 0 -443.5 -184t-185.5 -444zM510 713q0 170 70 274q84 125 245 125 q137 0 240 -123l-76 -63q-74 88 -164 88q-213 0 -213 -301t213 -301q90 0 164 88l76 -64q-102 -123 -240 -123q-162 0 -245 125q-70 104 -70 275z" />
<glyph unicode="&#xaa;" horiz-adv-x="806" d="M90 864q0 113 84 180q76 61 191 62h112q86 0 117 31v69q0 59 -53.5 99.5t-116.5 40.5q-162 0 -201 -134l-98 29q74 207 303 207q102 0 182 -64q86 -70 86 -172v-483l29 -72l-92 -32l-29 65q-100 -76 -227 -76q-123 0 -201 62q-86 68 -86 188zM195 864q0 -72 52 -109.5 t130 -37.5q123 0 217 96v209q-37 -16 -96 -16h-133q-74 0 -122 -37t-48 -105zM268 412v100h271v-100h-271z" />
<glyph unicode="&#xab;" horiz-adv-x="964" d="M92 479v99l408 397v-137l-316 -310l316 -309v-137zM444 479v99l408 397v-137l-317 -310l317 -309v-137z" />
<glyph unicode="&#xac;" horiz-adv-x="1026" d="M92 487v88h821v-364h-88v276h-733z" />
<glyph unicode="&#xad;" horiz-adv-x="792" d="M133 508v104h526v-104h-526z" />
<glyph unicode="&#xae;" horiz-adv-x="1617" d="M92 713q0 297 210 507t507 210t507 -210t210 -507t-210 -507t-507 -210t-507 210t-210 507zM180 713q0 -260 185.5 -444.5t443.5 -184.5q260 0 444.5 184.5t184.5 444.5t-184.5 444t-444.5 184q-258 0 -443.5 -184t-185.5 -444zM561 328v772h275q256 0 256 -226 q0 -80 -51.5 -144t-129.5 -64q12 -12 33 -39l180 -299h-116l-148 247q-49 82 -102 82h-99v-329h-98zM659 743h177q157 0 157 131q0 127 -157 127h-177v-258z" />
<glyph unicode="&#xaf;" horiz-adv-x="991" d="M195 1212v99h602v-99h-602z" />
<glyph unicode="&#xb0;" horiz-adv-x="555" d="M92 1354q0 76 54.5 130t129.5 54q78 0 132.5 -54t54.5 -130t-54.5 -131.5t-132.5 -55.5q-76 0 -130 55.5t-54 131.5zM172 1354q0 -43 30.5 -75t73.5 -32t75 32t32 75t-32 74.5t-75 31.5t-73.5 -31.5t-30.5 -74.5z" />
<glyph unicode="&#xb1;" horiz-adv-x="1046" d="M113 0v100h821v-100h-821zM113 508v104h358v359h104v-359h359v-104h-359v-358h-104v358h-358z" />
<glyph unicode="&#xb2;" horiz-adv-x="681" d="M92 561v76q70 184 211 319q119 111 161 167.5t42 105.5q0 70 -55 104q-41 27 -97 27q-104 0 -161 -107l-7 -10l-73 39l6 10q80 152 235 152q94 0 162 -53q74 -61 74 -162q0 -70 -47 -138.5t-181 -195.5q-106 -100 -176 -250h404v-84h-498z" />
<glyph unicode="&#xb3;" horiz-adv-x="675" d="M92 741l80 27l4 -12q37 -115 158 -115q68 0 117 49t49 119t-49.5 120t-116.5 50h-47v84h39q66 0 111.5 44t45.5 105t-46 105.5t-111 44.5q-115 0 -150 -105l-4 -10l-80 27l4 12q25 72 88.5 116t141.5 44q100 0 170.5 -68.5t70.5 -165.5q0 -119 -100 -190 q117 -74 117 -213q0 -104 -74 -178t-176 -74q-82 0 -147.5 47t-90.5 125z" />
<glyph unicode="&#xb4;" horiz-adv-x="577" d="M133 1116l174 299h137l-194 -299h-117z" />
<glyph unicode="&#xb6;" horiz-adv-x="1140" d="M113 1034q0 164 115.5 280t279.5 116h459v-1739h-103v1628h-252v-1628h-104v946q-164 0 -279.5 116.5t-115.5 280.5z" />
<glyph unicode="&#xb7;" horiz-adv-x="444" d="M133 543q0 37 25.5 62.5t62.5 25.5t63.5 -25.5t26.5 -62.5t-26.5 -63.5t-63.5 -26.5t-62.5 26.5t-25.5 63.5z" />
<glyph unicode="&#xb8;" horiz-adv-x="985" d="M348 -401l168 264l-65 149l81 35l84 -192l-133 -256h-135z" />
<glyph unicode="&#xb9;" horiz-adv-x="524" d="M82 1298l244 144h45v-881h-84v762l-162 -96z" />
<glyph unicode="&#xba;" horiz-adv-x="862" d="M94 1032q0 416 338 416q336 0 336 -416q0 -418 -336 -418q-338 0 -338 418zM197 1032q0 -147 43 -219q55 -94 192 -94q234 0 234 313q0 145 -43 219q-55 94 -191 95q-137 0 -192 -95q-43 -74 -43 -219zM297 412v100h270v-100h-270z" />
<glyph unicode="&#xbb;" horiz-adv-x="964" d="M113 82v137l317 309l-317 310v137l407 -397v-99zM465 82v137l315 309l-315 310v137l407 -397v-99z" />
<glyph unicode="&#xbc;" horiz-adv-x="1515" d="M82 1298l244 144h45v-881h-84v762l-162 -96zM369 0l618 1430h92l-618 -1430h-92zM936 225v80l360 578h99l-357 -574h262v348l84 -16v-332h60v-84h-60v-225h-84v225h-364z" />
<glyph unicode="&#xbd;" horiz-adv-x="1593" d="M82 1298l244 144h45v-881h-84v762l-162 -96zM369 0l618 1430h92l-618 -1430h-92zM993 0v76q70 184 211 319q119 113 161 169.5t42 105.5q0 70 -55 104q-41 27 -97 27q-104 0 -161 -107l-7 -10l-73 39l6 10q80 152 235 152q94 0 165 -57.5t71 -157.5q0 -70 -47 -139.5 t-180 -196.5q-106 -100 -177 -250h404v-84h-498z" />
<glyph unicode="&#xbe;" horiz-adv-x="1681" d="M92 741l80 27l4 -12q37 -115 158 -115q68 0 117 49t49 119t-49.5 120t-116.5 50h-47v84h39q66 0 111.5 44t45.5 105t-46 105.5t-111 44.5q-115 0 -150 -105l-4 -10l-80 27l4 12q25 72 88.5 116t141.5 44q100 0 170.5 -68.5t70.5 -165.5q0 -119 -100 -190 q117 -74 117 -213q0 -104 -74 -178t-176 -74q-82 0 -147.5 47t-90.5 125zM532 0l621 1430h90l-618 -1430h-93zM1100 225v80l360 578h101l-359 -574h264v348l84 -16v-332h60v-84h-60v-225h-84v225h-366z" />
<glyph unicode="&#xbf;" horiz-adv-x="958" d="M63 356q0 141 91 219q86 57 172 113q94 76 100 213l8 170h68q14 -117 14 -170q0 -166 -90 -254q-84 -59 -168 -117q-90 -66 -90 -174q0 -127 86 -199.5t213 -72.5q125 0 218 71.5t93 192.5h99q0 -164 -125 -268q-117 -96 -285 -96q-170 0 -287 102t-117 270zM385 1364 q0 31 24.5 56.5t57.5 25.5q31 0 55.5 -25.5t24.5 -56.5q0 -33 -24.5 -57.5t-55.5 -24.5q-33 0 -57.5 24.5t-24.5 57.5z" />
<glyph unicode="&#xc0;" horiz-adv-x="1263" d="M20 0l547 1430h129l547 -1430h-110l-168 436h-666l-168 -436h-111zM336 535h592l-297 776zM422 1886h137l174 -299h-117z" />
<glyph unicode="&#xc1;" horiz-adv-x="1263" d="M20 0l547 1430h129l547 -1430h-110l-168 436h-666l-168 -436h-111zM336 535h592l-297 776zM524 1587l174 299h138l-195 -299h-117z" />
<glyph unicode="&#xc2;" horiz-adv-x="1263" d="M20 0l547 1430h129l547 -1430h-110l-168 436h-666l-168 -436h-111zM336 535h592l-297 776zM369 1587l174 299h178l174 -299h-117l-147 250l-146 -250h-116z" />
<glyph unicode="&#xc3;" horiz-adv-x="1263" d="M20 0l547 1430h129l547 -1430h-110l-168 436h-666l-168 -436h-111zM319 1661q76 100 168 100q59 0 156.5 -44t140.5 -44t93 64l77 -62q-78 -100 -170 -100q-59 0 -156.5 44t-140.5 44t-92 -64zM336 535h592l-297 776z" />
<glyph unicode="&#xc4;" horiz-adv-x="1263" d="M20 0l547 1430h129l547 -1430h-110l-168 436h-666l-168 -436h-111zM328 1675q0 37 26.5 63.5t63.5 26.5t62.5 -26.5t25.5 -63.5t-25.5 -62.5t-62.5 -25.5t-63.5 25.5t-26.5 62.5zM336 535h592l-297 776zM752 1675q0 37 26.5 63.5t63.5 26.5t62.5 -26.5t25.5 -63.5 t-25.5 -62.5t-62.5 -25.5t-63.5 25.5t-26.5 62.5z" />
<glyph unicode="&#xc5;" horiz-adv-x="1263" d="M20 0l547 1430h129l547 -1430h-110l-168 436h-666l-168 -436h-111zM336 535h592l-297 776zM393 1763q0 98 69.5 169t168.5 71q100 0 169.5 -71t69.5 -169t-69.5 -167.5t-169.5 -69.5q-98 0 -168 69.5t-70 167.5zM492 1763q0 -57 40.5 -98t98.5 -41q59 0 100 41t41 98 t-41 98.5t-100 41.5q-57 0 -98 -41t-41 -99z" />
<glyph unicode="&#xc6;" horiz-adv-x="1849" d="M31 0l676 1430h1050v-103h-735v-530h637v-105h-637v-590h735v-102h-837h-2v436h-566l-207 -436h-114zM399 535h519v792h-146z" />
<glyph unicode="&#xc7;" horiz-adv-x="1173" d="M92 715q0 311 119 502q145 231 440 231q139 0 244 -57q90 -51 186 -168l-77 -66q-82 96 -154 139q-84 47 -199 47q-250 0 -364 -200q-90 -160 -90 -428t90 -428q115 -201 364 -201q115 0 199 49q72 41 154 137l77 -65q-168 -205 -366 -221l55 -131l-133 -256h-135 l168 264l-52 121q-283 14 -415 243q-111 186 -111 488z" />
<glyph unicode="&#xc8;" horiz-adv-x="1155" d="M154 0v1430h888v-103h-784v-536h686v-99h-686v-590h784v-102h-888zM401 1886h138l174 -299h-117z" />
<glyph unicode="&#xc9;" horiz-adv-x="1155" d="M154 0v1430h888v-103h-784v-530h686v-105h-686v-590h784v-102h-888zM475 1587l174 299h137l-194 -299h-117z" />
<glyph unicode="&#xca;" horiz-adv-x="1155" d="M154 0v1430h888v-103h-784v-530h686v-105h-686v-590h784v-102h-888zM369 1587l174 299h178l174 -299h-117l-147 250l-146 -250h-116z" />
<glyph unicode="&#xcb;" horiz-adv-x="1155" d="M154 0v1430h888v-103h-784v-534h686v-101h-686v-590h784v-102h-888zM328 1675q0 37 26.5 63.5t63.5 26.5t62.5 -26.5t25.5 -63.5t-25.5 -62.5t-62.5 -25.5t-63.5 25.5t-26.5 62.5zM731 1675q0 37 26.5 63.5t63.5 26.5t62.5 -26.5t25.5 -63.5t-25.5 -62.5t-62.5 -25.5 t-63.5 25.5t-26.5 62.5z" />
<glyph unicode="&#xcc;" horiz-adv-x="475" d="M31 1886h137l174 -299h-117zM180 0v1430h103v-1430h-103z" />
<glyph unicode="&#xcd;" horiz-adv-x="497" d="M133 1587l174 299h137l-194 -299h-117zM193 0v1430h104v-1430h-104z" />
<glyph unicode="&#xce;" horiz-adv-x="608" d="M41 1587l174 299h178l174 -299h-116l-148 250l-145 -250h-117zM246 0v1430h104v-1430h-104z" />
<glyph unicode="&#xcf;" horiz-adv-x="561" d="M20 1675q0 37 26 63.5t63 26.5t63.5 -26.5t26.5 -63.5t-27 -62.5t-63 -25.5q-37 0 -63 25.5t-26 62.5zM229 0v1430h105v-1430h-105zM362 1675q0 37 27 63.5t64 26.5q35 0 61.5 -26.5t26.5 -63.5t-27 -62.5t-61 -25.5q-37 0 -64 25.5t-27 62.5z" />
<glyph unicode="&#xd0;" horiz-adv-x="1349" d="M106 659v105h89v666h415q256 0 379 -68q158 -86 191 -315q16 -119 16 -332t-16 -330q-33 -231 -191 -317q-123 -68 -377 -68h-417v659h-89zM299 104h311q217 0 310 43q131 63 157 250q15 111 15 318t-15 317q-27 186 -157 250q-92 45 -310 45h-311v-563h334v-105h-334 v-555z" />
<glyph unicode="&#xd1;" horiz-adv-x="1269" d="M154 0v1430h110l750 -1244v1244h102v-1430h-110l-748 1243v-1243h-104zM330 1661q76 100 168 100q59 0 156.5 -44t140.5 -44t92 64l78 -62q-78 -100 -170 -100q-59 0 -156.5 44t-140.5 44t-92 -64z" />
<glyph unicode="&#xd2;" horiz-adv-x="1302" d="M92 715q0 313 119 502q143 231 440 231t441 -231q118 -189 118 -502t-118 -502q-143 -231 -441 -231q-297 0 -440 231q-119 188 -119 502zM197 715q0 -629 454 -629q457 0 457 629t-457 628q-455 0 -454 -628zM449 1886h137l174 -299h-117z" />
<glyph unicode="&#xd3;" horiz-adv-x="1302" d="M92 715q0 313 119 502q143 231 440 231t441 -231q118 -189 118 -502t-118 -502q-143 -231 -441 -231q-297 0 -440 231q-119 188 -119 502zM197 715q0 -629 454 -629q457 0 457 629t-457 628q-455 0 -454 -628zM530 1587l175 299h137l-195 -299h-117z" />
<glyph unicode="&#xd4;" horiz-adv-x="1302" d="M92 715q0 313 119 502q143 231 440 231t441 -231q118 -189 118 -502t-118 -502q-143 -231 -441 -231q-297 0 -440 231q-119 188 -119 502zM197 715q0 -629 454 -629q457 0 457 629t-457 628q-455 0 -454 -628zM389 1587l174 299h178l172 -299h-116l-146 250l-145 -250 h-117z" />
<glyph unicode="&#xd5;" horiz-adv-x="1302" d="M92 715q0 313 119 502q143 231 440 231t441 -231q118 -189 118 -502t-118 -502q-143 -231 -441 -231q-297 0 -440 231q-119 188 -119 502zM197 715q0 -629 454 -629q457 0 457 629t-457 628q-455 0 -454 -628zM348 1661q76 100 168 100q59 0 156.5 -44t140.5 -44t92 64 l78 -62q-78 -100 -170 -100q-59 0 -156.5 44t-140.5 44t-92 -64z" />
<glyph unicode="&#xd6;" horiz-adv-x="1302" d="M92 715q0 313 119 502q143 231 440 231t441 -231q118 -189 118 -502q0 -322 -118 -508q-141 -225 -441 -225q-297 0 -440 225q-119 186 -119 508zM197 715q0 -629 454 -629q457 0 457 629t-457 628q-455 0 -454 -628zM342 1675q0 37 26.5 63.5t63.5 26.5q35 0 61.5 -26.5 t26.5 -63.5q0 -35 -26.5 -61.5t-61.5 -26.5q-37 0 -63.5 26.5t-26.5 61.5zM766 1675q0 37 26.5 63.5t63.5 26.5q35 0 61.5 -26.5t26.5 -63.5q0 -35 -26.5 -61.5t-61.5 -26.5q-37 0 -63.5 26.5t-26.5 61.5z" />
<glyph unicode="&#xd7;" horiz-adv-x="890" d="M123 311l250 250l-250 248l74 74l247 -250l250 250l74 -74l-250 -248l250 -250l-74 -73l-250 249l-247 -249z" />
<glyph unicode="&#xd8;" horiz-adv-x="1302" d="M92 715q0 313 119 502q143 231 440 231q176 0 299 -82l35 64h113l-72 -127q184 -193 184 -588q0 -313 -118 -502q-143 -231 -441 -231q-182 0 -309 90l-39 -72h-113l78 137q-176 193 -176 578zM197 715q0 -319 125 -482l577 1041q-100 70 -248 69q-455 0 -454 -628z M393 164q104 -78 258 -78q457 0 457 629q0 332 -135 491z" />
<glyph unicode="&#xd9;" horiz-adv-x="1298" d="M143 602v828h105v-828q0 -242 76 -364q94 -152 325 -152t326 154q76 121 76 362v828h104v-828q0 -621 -506 -620q-506 0 -506 620zM453 1886h137l174 -299h-117z" />
<glyph unicode="&#xda;" horiz-adv-x="1298" d="M143 602v828h105v-828q0 -242 76 -364q94 -152 325 -152t326 154q76 121 76 362v828h104v-828q0 -621 -506 -620q-506 0 -506 620zM512 1587l174 299h137l-194 -299h-117z" />
<glyph unicode="&#xdb;" horiz-adv-x="1298" d="M143 602v828h105v-828q0 -242 76 -364q94 -152 325 -152t326 154q76 121 76 362v828h104v-828q0 -621 -506 -620q-506 0 -506 620zM393 1587l174 299h178l175 -299h-117l-146 250l-147 -250h-117z" />
<glyph unicode="&#xdc;" horiz-adv-x="1298" d="M143 592v838h105v-838q0 -242 76 -359q94 -147 325 -147t326 147q76 117 76 359v838h104v-838q0 -610 -506 -610t-506 610zM354 1675q0 37 26 63.5t62 26.5q37 0 62.5 -26.5t25.5 -63.5q0 -35 -25.5 -61.5t-62.5 -26.5t-62.5 26.5t-25.5 61.5zM778 1675q0 37 25.5 63.5 t62.5 26.5t62.5 -26.5t25.5 -63.5q0 -35 -25.5 -61.5t-62.5 -26.5t-62.5 26.5t-25.5 61.5z" />
<glyph unicode="&#xdd;" horiz-adv-x="1136" d="M51 1430h115l403 -826l402 826h114l-464 -959v-471h-105v475zM432 1587l174 299h137l-194 -299h-117z" />
<glyph unicode="&#xde;" horiz-adv-x="1277" d="M195 0v1430h104v-302h412q465 0 465 -391q0 -389 -465 -389h-412v-348h-104zM299 451h412q172 0 256 55q106 69 106 233q0 162 -106 232q-84 55 -256 55h-412v-575z" />
<glyph unicode="&#xdf;" horiz-adv-x="1007" d="M45 885v92h88v45q0 408 344 408q113 0 194 -81t81 -194q0 -119 -88 -201q251 -88 251 -473q0 -475 -399 -485v98q299 6 299 393q0 184 -57 277q-72 113 -244 121v88q63 10 102 67q37 51 37 115q0 72 -52 124t-124 52q-246 0 -246 -309v-1022h-98v885h-88z" />
<glyph unicode="&#xe0;" horiz-adv-x="944" d="M92 276q0 135 101 216q92 72 229 71h143q119 0 164 49v95q0 82 -76 137q-70 49 -153 49q-217 0 -267 -162l-94 29q84 231 365 231q125 0 221 -76q102 -82 102 -202v-609l35 -94l-90 -26l-39 98q-131 -102 -295 -102q-150 0 -243 73q-102 80 -103 223zM193 276 q0 -96 75 -151q68 -47 170 -47q166 0 291 129v293q-57 -31 -139 -31h-168q-96 0 -160 -47q-70 -51 -69 -146zM295 1415h137l174 -299h-117z" />
<glyph unicode="&#xe1;" horiz-adv-x="944" d="M92 276q0 135 101 216q92 72 229 71h143q119 0 164 49v95q0 82 -76 137q-70 49 -153 49q-217 0 -267 -162l-94 29q84 231 365 231q125 0 221 -76q102 -82 102 -202v-609l35 -94l-90 -26l-39 98q-131 -102 -295 -102q-150 0 -243 73q-102 80 -103 223zM193 276 q0 -96 75 -151q68 -47 170 -47q166 0 291 129v293q-57 -31 -139 -31h-168q-96 0 -160 -47q-70 -51 -69 -146zM375 1116l174 299h137l-194 -299h-117z" />
<glyph unicode="&#xe2;" horiz-adv-x="944" d="M92 276q0 135 101 216q92 72 229 71h143q119 0 164 49v95q0 82 -76 137q-70 49 -153 49q-217 0 -267 -162l-94 29q84 231 365 231q125 0 221 -76q102 -82 102 -202v-609l35 -94l-90 -26l-39 98q-131 -102 -295 -102q-150 0 -243 73q-102 80 -103 223zM193 276 q0 -96 75 -151q68 -47 170 -47q166 0 291 129v293q-57 -31 -139 -31h-168q-96 0 -160 -47q-70 -51 -69 -146zM227 1092l187 299h155l187 -299h-119l-148 249l-145 -249h-117z" />
<glyph unicode="&#xe3;" horiz-adv-x="944" d="M92 276q0 135 101 216q92 72 229 71h143q119 0 164 49v95q0 82 -76 137q-70 49 -153 49q-217 0 -267 -162l-94 29q84 231 365 231q125 0 221 -76q102 -82 102 -202v-609l35 -94l-90 -26l-39 98q-131 -102 -295 -102q-150 0 -243 73q-102 80 -103 223zM160 1204 q78 100 168 101q61 0 157.5 -44t139.5 -44t94 63l76 -61q-78 -100 -168 -101q-61 0 -157.5 44t-139.5 44t-94 -63zM193 276q0 -96 75 -151q68 -47 170 -47q166 0 291 129v293q-57 -31 -139 -31h-168q-96 0 -160 -47q-70 -51 -69 -146z" />
<glyph unicode="&#xe4;" horiz-adv-x="944" d="M92 276q0 135 101 216q92 72 229 71h143q119 0 164 49v95q0 82 -76 137q-70 49 -153 49q-217 0 -267 -162l-94 29q84 231 365 231q125 0 221 -76q102 -82 102 -202v-609l35 -94l-90 -26l-39 98q-131 -102 -295 -102q-150 0 -243 73q-102 80 -103 223zM193 276 q0 -96 75 -151q68 -47 170 -47q166 0 291 129v293q-57 -31 -139 -31h-168q-96 0 -160 -47q-70 -51 -69 -146zM199 1198q0 37 25.5 63.5t62.5 26.5t63.5 -26.5t26.5 -63.5t-26.5 -62.5t-63.5 -25.5t-62.5 25.5t-25.5 62.5zM602 1198q0 37 26.5 63.5t63.5 26.5 q35 0 61.5 -26.5t26.5 -63.5t-26.5 -62.5t-61.5 -25.5q-37 0 -63.5 25.5t-26.5 62.5z" />
<glyph unicode="&#xe5;" horiz-adv-x="944" d="M92 276q0 135 101 216q92 72 229 71h143q119 0 164 49v95q0 82 -76 137q-70 49 -153 49q-217 0 -267 -162l-94 29q84 231 365 231q125 0 221 -76q102 -82 102 -202v-609l35 -94l-90 -26l-39 98q-131 -102 -295 -102q-150 0 -243 73q-102 80 -103 223zM193 276 q0 -96 75 -151q68 -47 170 -47q166 0 291 129v293q-57 -31 -139 -31h-168q-96 0 -160 -47q-70 -51 -69 -146zM256 1329q0 98 69.5 168t170.5 70q98 0 167.5 -70t69.5 -168t-69.5 -168.5t-167.5 -70.5q-100 0 -170 70.5t-70 168.5zM354 1329q0 -57 41 -98t101 -41q57 0 98 41 t41 98t-41 98t-98 41q-59 0 -100.5 -41t-41.5 -98z" />
<glyph unicode="&#xe6;" horiz-adv-x="1593" d="M80 276q0 133 100 213q92 74 230 74h143q115 0 162 49v95q0 82 -76 137q-68 49 -152 49q-217 0 -266 -162l-94 29q84 231 365 231q92 0 177 -47t124 -127q102 174 342 174q190 0 286 -133q88 -116 88 -313l-2 -82h-692q4 -383 340 -383q168 0 252 108l78 -61 q-113 -145 -330 -145q-248 0 -356 163q-160 -166 -373 -165q-147 0 -242 73q-104 80 -104 223zM180 276q0 -98 78 -151q66 -47 168 -47q166 0 328 162q-37 104 -39 260q-55 -31 -137 -31h-168q-96 0 -158 -47q-72 -53 -72 -146zM815 561h594q-4 332 -274 332 q-301 0 -320 -332z" />
<glyph unicode="&#xe7;" horiz-adv-x="946" d="M92 489q0 221 105 359q117 150 331 149q106 0 178 -34.5t148 -116.5l-72 -66q-111 125 -254 125q-176 0 -260 -127q-72 -106 -71 -289q0 -182 71 -288q84 -125 260 -125q143 0 254 125l72 -66q-125 -137 -274 -149l57 -131l-133 -256h-135l168 264l-54 121 q-193 16 -297 163q-94 133 -94 342z" />
<glyph unicode="&#xe8;" horiz-adv-x="976" d="M92 485q0 506 418 506q190 0 289 -133q86 -116 86 -313v-82h-690q4 -383 335 -383q168 0 252 108l78 -61q-113 -145 -330 -145q-438 0 -438 503zM197 561h587q-6 332 -274 332q-293 0 -313 -332zM317 1415h138l174 -299h-117z" />
<glyph unicode="&#xe9;" horiz-adv-x="976" d="M92 485q0 506 418 506q190 0 289 -133q86 -116 86 -313v-82h-690q6 -383 335 -383q168 0 252 108l78 -61q-113 -145 -330 -145q-438 0 -438 503zM197 561h587q-6 332 -274 332q-293 0 -313 -332zM430 1116l174 299h137l-194 -299h-117z" />
<glyph unicode="&#xea;" horiz-adv-x="976" d="M92 485q0 506 418 506q190 0 289 -133q86 -116 86 -313v-82h-690q6 -383 335 -383q168 0 252 108l78 -61q-113 -145 -330 -145q-438 0 -438 503zM197 561h587q-6 332 -274 332q-293 0 -313 -332zM246 1092l186 299h156l186 -299h-119l-147 249l-146 -249h-116z" />
<glyph unicode="&#xeb;" horiz-adv-x="976" d="M92 485q0 506 418 506q190 0 289 -133q86 -116 86 -313v-82h-690q6 -383 335 -383q168 0 252 108l78 -61q-113 -145 -330 -145q-438 0 -438 503zM197 561h587q-6 332 -274 332q-293 0 -313 -332zM219 1198q0 37 25.5 63.5t62.5 26.5t63.5 -26.5t26.5 -63.5t-26.5 -62.5 t-63.5 -25.5t-62.5 25.5t-25.5 62.5zM623 1198q0 37 26.5 63.5t63.5 26.5q35 0 61.5 -26.5t26.5 -63.5t-26.5 -62.5t-61.5 -25.5q-37 0 -63.5 25.5t-26.5 62.5z" />
<glyph unicode="&#xec;" horiz-adv-x="434" d="M23 1415h137l174 -299h-117zM168 0v979h98v-979h-98z" />
<glyph unicode="&#xed;" horiz-adv-x="434" d="M135 1116l174 299h137l-194 -299h-117zM168 0v979h98v-979h-98z" />
<glyph unicode="&#xee;" horiz-adv-x="434" d="M-53 1092l186 299h156l186 -299h-119l-145 249l-148 -249h-116zM168 0v979h98v-979h-98z" />
<glyph unicode="&#xef;" horiz-adv-x="434" d="M-39 1198q0 37 25.5 63.5t62.5 26.5t63.5 -26.5t26.5 -63.5t-26.5 -62.5t-63.5 -25.5t-62.5 25.5t-25.5 62.5zM168 0v979h98v-979h-98zM299 1198q0 37 25.5 63.5t62.5 26.5t62.5 -26.5t25.5 -63.5t-25.5 -62.5t-62.5 -25.5t-62.5 25.5t-25.5 62.5z" />
<glyph unicode="&#xf0;" horiz-adv-x="1062" d="M123 485q0 506 409 506q96 0 177 -35l-99 224h-245v92h206l-116 264h98l117 -264h180v-92h-139q55 -117 170 -351q59 -113 59 -344q0 -504 -408 -503q-410 0 -409 503zM221 485q0 -188 60 -284q74 -121 249 -121q178 0 252 121q60 96 60 284q0 190 -60 287 q-74 121 -250 121q-178 0 -251 -121q-59 -96 -60 -287z" />
<glyph unicode="&#xf1;" horiz-adv-x="1009" d="M133 0v979h98v-102q100 115 277 114q389 0 389 -442v-549h-98v549q0 168 -60 250q-72 94 -231 94q-119 0 -198 -69.5t-79 -172.5v-651h-98zM203 1204q78 100 168 101q61 0 157.5 -44t139.5 -44t94 63l76 -61q-78 -100 -168 -101q-61 0 -157.5 44t-139.5 44t-94 -63z" />
<glyph unicode="&#xf2;" d="M92 485q0 506 410 506q407 0 407 -506q0 -504 -407 -503q-410 0 -410 503zM190 485q0 -188 60 -284q74 -121 250 -121q178 0 252 121q59 96 59 284q0 190 -59 287q-74 121 -250 121q-178 0 -252 -121q-59 -96 -60 -287zM307 1415h137l174 -299h-116z" />
<glyph unicode="&#xf3;" d="M92 485q0 506 410 506q407 0 407 -506q0 -504 -407 -503q-410 0 -410 503zM190 485q0 -188 60 -284q74 -121 250 -121q178 0 252 121q59 96 59 284q0 190 -59 287q-74 121 -250 121q-178 0 -252 -121q-59 -96 -60 -287zM410 1116l174 299h137l-195 -299h-116z" />
<glyph unicode="&#xf4;" d="M92 485q0 506 410 506q407 0 407 -506q0 -504 -407 -503q-410 0 -410 503zM190 485q0 -188 60 -284q74 -121 250 -121q178 0 252 121q59 96 59 284q0 190 -59 287q-74 121 -250 121q-178 0 -252 -121q-59 -96 -60 -287zM236 1092l186 299h156l186 -299h-119l-147 249 l-146 -249h-116z" />
<glyph unicode="&#xf5;" d="M92 485q0 506 410 506q407 0 407 -506q0 -504 -407 -503q-410 0 -410 503zM190 485q0 -188 60 -284q74 -121 250 -121q178 0 252 121q59 96 59 284q0 190 -59 287q-74 121 -250 121q-178 0 -252 -121q-59 -96 -60 -287zM193 1204q76 100 167 101q59 0 156.5 -44 t140.5 -44q45 0 95 63l75 -61q-76 -100 -168 -101q-59 0 -156 44t-141 44q-45 0 -94 -63z" />
<glyph unicode="&#xf6;" d="M92 485q0 506 410 506q407 0 407 -506q0 -504 -407 -503q-410 0 -410 503zM190 485q0 -188 60 -284q74 -121 250 -121q178 0 252 121q59 96 59 284q0 190 -59 287q-74 121 -250 121q-178 0 -252 -121q-59 -96 -60 -287zM211 1198q0 37 25.5 63.5t62.5 26.5t63.5 -26.5 t26.5 -63.5t-26.5 -62.5t-63.5 -25.5t-62.5 25.5t-25.5 62.5zM614 1198q0 37 27 63.5t64 26.5q35 0 61.5 -26.5t26.5 -63.5t-27 -62.5t-61 -25.5q-37 0 -64 25.5t-27 62.5z" />
<glyph unicode="&#xf7;" horiz-adv-x="1032" d="M113 508v104h807v-104h-807zM424 244q0 35 25.5 61.5t62.5 26.5t62.5 -26.5t25.5 -61.5q0 -37 -25.5 -63.5t-62.5 -26.5t-62.5 26.5t-25.5 63.5zM424 879q0 37 25.5 63.5t62.5 26.5t62.5 -26.5t25.5 -63.5q0 -35 -25.5 -61.5t-62.5 -26.5t-62.5 26.5t-25.5 61.5z" />
<glyph unicode="&#xf8;" d="M92 485q0 506 410 506q129 0 217 -51l26 41h101l-58 -96q121 -126 121 -400q0 -504 -407 -503q-133 0 -223 53l-23 -35h-100l53 90q-117 127 -117 395zM190 485q0 -209 74 -305l404 674q-66 39 -166 39q-178 0 -252 -121q-59 -96 -60 -287zM330 121q68 -41 170 -41 q178 0 252 121q59 96 59 284q0 215 -76 312z" />
<glyph unicode="&#xf9;" horiz-adv-x="1019" d="M123 430v549h98v-549q0 -166 60 -248q72 -96 233 -96q96 0 180 61q94 66 94 160v672h99v-979h-99v96q-106 -109 -274 -108q-391 0 -391 442zM317 1415h138l174 -299h-117z" />
<glyph unicode="&#xfa;" horiz-adv-x="1019" d="M123 430v549h98v-549q0 -166 60 -248q72 -96 233 -96q96 0 180 61q94 66 94 160v672h99v-979h-99v96q-106 -109 -274 -108q-391 0 -391 442zM434 1116l174 299h137l-194 -299h-117z" />
<glyph unicode="&#xfb;" horiz-adv-x="1019" d="M123 430v549h98v-549q0 -166 60 -248q72 -96 233 -96q96 0 180 61q94 66 94 160v672h99v-979h-99v96q-106 -109 -274 -108q-391 0 -391 442zM242 1092l186 299h156l186 -299h-119l-147 249l-146 -249h-116z" />
<glyph unicode="&#xfc;" horiz-adv-x="1019" d="M123 430v549h98v-549q0 -166 60 -248q72 -96 233 -96q96 0 180 61q94 66 94 160v672h99v-979h-99v96q-106 -109 -274 -108q-391 0 -391 442zM219 1198q0 37 25.5 63.5t62.5 26.5t63.5 -26.5t26.5 -63.5t-26.5 -62.5t-63.5 -25.5t-62.5 25.5t-25.5 62.5zM627 1198 q0 37 26.5 63.5t63.5 26.5q35 0 61.5 -26.5t26.5 -63.5t-26.5 -62.5t-61.5 -25.5q-37 0 -63.5 25.5t-26.5 62.5z" />
<glyph unicode="&#xfd;" horiz-adv-x="897" d="M31 979h104l314 -838l311 838h106l-458 -1229q-76 -203 -267 -201h-39v99h41q121 0 172 137l80 215zM332 1116l174 299h137l-194 -299h-117z" />
<glyph unicode="&#xfe;" horiz-adv-x="1040" d="M184 -451v1881h99v-558q98 119 276 119q389 0 389 -506q0 -504 -389 -503q-184 0 -276 108v-541h-99zM283 332q0 -113 80.5 -182.5t195.5 -69.5q170 0 240 127q51 94 51 278q0 186 -51 281q-70 127 -240 127q-117 0 -196.5 -69.5t-79.5 -184.5v-307z" />
<glyph unicode="&#xff;" horiz-adv-x="927" d="M41 979h113l313 -838l311 838h109l-459 -1229q-76 -203 -268 -201h-39v99h41q123 0 172 137l78 223zM176 1198q0 37 25.5 63.5t62.5 26.5t63.5 -26.5t26.5 -63.5q0 -35 -26.5 -61.5t-63.5 -26.5t-62.5 26.5t-25.5 61.5zM580 1198q0 37 26.5 63.5t63.5 26.5 q35 0 61.5 -26.5t26.5 -63.5q0 -35 -26.5 -61.5t-61.5 -26.5q-37 0 -63.5 26.5t-26.5 61.5z" />
<glyph unicode="&#x152;" horiz-adv-x="2060" d="M92 715q0 313 119 502q143 231 440 231q141 0 265 -67.5t192 -186.5v236h840v-103h-738v-530h639v-105h-639v-590h738v-102h-840v238q-70 -121 -192.5 -188.5t-264.5 -67.5q-297 0 -440 231q-119 188 -119 502zM197 715q0 -629 454 -629q457 0 457 629t-457 628 q-455 0 -454 -628z" />
<glyph unicode="&#x153;" horiz-adv-x="1691" d="M92 485q0 506 410 506q264 0 360 -215q100 215 365 215q188 0 286 -133q88 -118 86 -313v-82h-688q4 -383 334 -383q180 0 266 110l78 -61q-117 -147 -344 -147q-283 0 -383 213q-96 -213 -360 -213q-410 0 -410 503zM190 485q0 -188 60 -284q74 -121 250 -121 q178 0 252 121q59 96 59 284q0 190 -59 287q-74 121 -250 121q-178 0 -252 -121q-59 -96 -60 -287zM913 561h588q-8 332 -274 332q-293 0 -314 -332z" />
<glyph unicode="&#x178;" horiz-adv-x="1136" d="M51 1430h115l403 -838l402 838h114l-464 -959v-471h-105v475zM270 1675q0 37 27 63.5t63 26.5q37 0 63 -26.5t26 -63.5t-26 -62.5t-63 -25.5t-63.5 25.5t-26.5 62.5zM696 1675q0 37 26 63.5t62 26.5q37 0 62.5 -26.5t25.5 -63.5t-25.5 -62.5t-62.5 -25.5t-62.5 25.5 t-25.5 62.5z" />
<glyph unicode="&#x2c6;" horiz-adv-x="1019" d="M242 1092l186 299h156l186 -299h-119l-147 249l-146 -249h-116z" />
<glyph unicode="&#x2dc;" horiz-adv-x="1013" d="M184 1204q78 100 168 101q61 0 157.5 -44t139.5 -44t94 63l76 -61q-78 -100 -168 -101q-61 0 -157.5 44t-139.5 44t-94 -63z" />
<glyph unicode="&#x2000;" />
<glyph unicode="&#x2001;" horiz-adv-x="2003" />
<glyph unicode="&#x2002;" />
<glyph unicode="&#x2003;" horiz-adv-x="2003" />
<glyph unicode="&#x2004;" horiz-adv-x="667" />
<glyph unicode="&#x2005;" horiz-adv-x="500" />
<glyph unicode="&#x2006;" horiz-adv-x="333" />
<glyph unicode="&#x2007;" horiz-adv-x="333" />
<glyph unicode="&#x2008;" horiz-adv-x="250" />
<glyph unicode="&#x2009;" horiz-adv-x="400" />
<glyph unicode="&#x200a;" horiz-adv-x="111" />
<glyph unicode="&#x2010;" horiz-adv-x="792" d="M133 508v104h526v-104h-526z" />
<glyph unicode="&#x2011;" horiz-adv-x="792" d="M133 508v104h526v-104h-526z" />
<glyph unicode="&#x2012;" horiz-adv-x="792" d="M133 508v104h526v-104h-526z" />
<glyph unicode="&#x2013;" horiz-adv-x="1032" d="M113 508v104h807v-104h-807z" />
<glyph unicode="&#x2014;" horiz-adv-x="1642" d="M113 508v104h1417v-104h-1417z" />
<glyph unicode="&#x2018;" horiz-adv-x="464" d="M143 1192q0 6 15 96l155 252h9l-15 -340q-2 -33 -25.5 -57.5t-56.5 -24.5q-31 0 -56.5 21.5t-25.5 52.5z" />
<glyph unicode="&#x2019;" horiz-adv-x="464" d="M143 1118l15 340q2 35 25.5 58.5t56.5 23.5q31 0 56.5 -20.5t25.5 -53.5q0 -6 -15 -96l-155 -252h-9z" />
<glyph unicode="&#x201a;" horiz-adv-x="464" d="M143 -242l15 340q2 35 25.5 58.5t56.5 23.5q35 0 60.5 -24.5t21.5 -57.5l-15 -88l-155 -252h-9z" />
<glyph unicode="&#x201c;" horiz-adv-x="727" d="M143 1192q0 6 15 96l155 252h9l-15 -340q-2 -33 -25.5 -57.5t-56.5 -24.5q-31 0 -56.5 21.5t-25.5 52.5zM406 1192q0 6 14 96l153 252h11l-15 -340q-2 -33 -25.5 -57.5t-56.5 -24.5t-57 21.5t-24 52.5z" />
<glyph unicode="&#x201d;" horiz-adv-x="727" d="M143 1118l15 340q2 35 25.5 58.5t56.5 23.5q31 0 56.5 -20.5t25.5 -53.5q0 -6 -15 -96l-155 -252h-9zM406 1118l14 340q0 35 23.5 58.5t56.5 23.5t58.5 -20.5t25.5 -53.5q0 -6 -17 -96l-153 -252h-8z" />
<glyph unicode="&#x201e;" horiz-adv-x="727" d="M143 -242l15 340q2 35 25.5 58.5t56.5 23.5q35 0 60.5 -24.5t21.5 -57.5l-15 -88l-155 -252h-9zM406 -242l14 340q0 35 23.5 58.5t56.5 23.5q35 0 61.5 -24.5t20.5 -57.5l-15 -88l-153 -252h-8z" />
<glyph unicode="&#x2022;" horiz-adv-x="868" d="M133 692q0 125 88 213t213 88t213 -88t88 -213t-88 -213t-213 -88t-213 88t-88 213z" />
<glyph unicode="&#x2026;" horiz-adv-x="1288" d="M154 72q0 37 26.5 62.5t61.5 25.5q37 0 63.5 -25.5t26.5 -62.5t-26.5 -62.5t-63.5 -25.5q-35 0 -61.5 25.5t-26.5 62.5zM555 72q0 37 26.5 62.5t63.5 25.5q35 0 61.5 -25.5t26.5 -62.5t-26.5 -62.5t-61.5 -25.5q-37 0 -63.5 25.5t-26.5 62.5zM958 72q0 37 26 62.5 t63 25.5t62.5 -25.5t25.5 -62.5t-26 -62.5t-62 -25.5q-37 0 -63 25.5t-26 62.5z" />
<glyph unicode="&#x202f;" horiz-adv-x="400" />
<glyph unicode="&#x2039;" horiz-adv-x="612" d="M92 479v99l408 397v-137l-316 -310l316 -309v-137z" />
<glyph unicode="&#x203a;" horiz-adv-x="612" d="M113 82v137l317 309l-317 310v137l407 -397v-99z" />
<glyph unicode="&#x205f;" horiz-adv-x="500" />
<glyph unicode="&#x2122;" horiz-adv-x="989" d="M86 1378v52h330v-52h-140v-377h-51v377h-139zM465 1001v429h51l148 -369l145 369h53v-429h-51v312l-121 -312h-55l-121 310v-310h-49z" />
<glyph unicode="&#x25fc;" horiz-adv-x="983" d="M0 0v983h983v-983h-983z" />
</font>
</defs>
</svg>
